<?xml version="1.0" encoding="utf-8"?>
<!-- Generator: Adobe Illustrator 19.0.0, SVG Export Plug-In . SVG Version: 6.00 Build 0)  -->
<svg version="1.1" id="Capa_1" xmlns="http://www.w3.org/2000/svg" xmlns:xlink="http://www.w3.org/1999/xlink" x="0px" y="0px"
	 viewBox="-281 263 277.8 69.3" style="enable-background:new -281 263 277.8 69.3;" xml:space="preserve">
<metadata><?xpacket begin="﻿" id="W5M0MpCehiHzreSzNTczkc9d"?>
<x:xmpmeta xmlns:x="adobe:ns:meta/" x:xmptk="Adobe XMP Core 5.6-c067 79.157747, 2015/03/30-23:40:42        ">
   <rdf:RDF xmlns:rdf="http://www.w3.org/1999/02/22-rdf-syntax-ns#">
      <rdf:Description rdf:about=""/>
   </rdf:RDF>
</x:xmpmeta>
                                                                                                    
                                                                                                    
                                                                                                    
                                                                                                    
                                                                                                    
                                                                                                    
                                                                                                    
                                                                                                    
                                                                                                    
                                                                                                    
                                                                                                    
                                                                                                    
                                                                                                    
                                                                                                    
                                                                                                    
                                                                                                    
                                                                                                    
                                                                                                    
                                                                                                    
                                                                                                    
                           
<?xpacket end="w"?></metadata>
<style type="text/css">
	.st0{fill:#FFFFFF;}
</style>
<g>
	<path class="st0" d="M-157.2,277c0-3.5-2.8-6.4-6.2-6.4H-268c-3.4,0.1-6.1,2.9-6.1,6.4v41.3c0,3.5,2.8,6.4,6.2,6.4h110.7
		C-157.2,324.7-157.2,277-157.2,277z M-183,290.3h-5.3v17.8h-4.2v-17.8h-5.3v-3h14.8V290.3z M-227.8,300.3h5.9l-3.3-9.5
		L-227.8,300.3z M-203.8,290.9c-1.1-0.5-1.7-0.6-4.3-0.6h-2.1v14.8h1.6c2.9,0,4-0.2,4.8-0.5c1.5-0.6,3.1-2,3.1-6.7
		C-200.7,295.8-201,292.4-203.8,290.9 M-234.3,308h-13.6v-20.7h13.4v3h-9.3v5.9h7.7v3h-7.7v5.9h9.4v2.9L-234.3,308L-234.3,308z
		 M-219.3,308l-1.6-4.7h-7.7l-1.3,4.7h-3.7l5.9-19h-3v-1.8h7.9l7.7,20.8H-219.3z M-200.8,306.8c-2.1,1.2-4.2,1.2-6.7,1.3h-6.9v-19
		h-2.9v-1.8h10.7c1.8,0,4,0.1,6.1,1.6c3.5,2.4,4,6.6,4,8.9C-196.5,301.4-197.8,305-200.8,306.8 M-268,328.8
		c-5.6,0-10.1-4.7-10.1-10.5V277c0-5.8,4.5-10.5,10.1-10.5h104.6c5.6,0,10.2,4.7,10.2,10.5v51.8H-268z M-86.9,278.2l1.9-5.8l0.1-0.6
		l0.1,0.6l1.8,5.8H-86.9z M-85.7,270.1l-4.5,13.7h1.5l1.4-4.3h4.6l0.4,1.1l0.3,1l0.3,1l0.4,1.1h1.5l-3.2-9.8l-1.3-3.9L-85.7,270.1
		C-85.7,270-85.7,270.1-85.7,270.1z M-90.7,283.8l0.2-1.3h-6.1v-12.4H-98v13.7L-90.7,283.8L-90.7,283.8z M-108.5,275.8
		c0-1.3,0.3-2.4,0.9-3.2c0.6-0.9,1.5-1.3,2.6-1.3s2,0.4,2.7,1.3c0.6,0.8,0.8,1.8,0.8,3.1v2.6c0,1.3-0.3,2.3-0.8,3.1
		c-0.6,0.8-1.5,1.3-2.6,1.3s-2-0.4-2.6-1.3c-0.6-0.8-0.9-1.8-0.9-3.2L-108.5,275.8L-108.5,275.8z M-109.9,278.4
		c0,1.7,0.5,3.1,1.4,4.1s2.1,1.5,3.5,1.5s2.6-0.5,3.5-1.5s1.4-2.4,1.4-4.1v-2.7c0-1.7-0.5-3.1-1.4-4.2c-0.9-1-2.1-1.5-3.5-1.5
		s-2.6,0.5-3.5,1.5s-1.4,2.4-1.4,4.2V278.4z M-112.9,283.4c0.6-0.2,1.1-0.6,1.6-1l-0.7-1.2c-0.8,0.9-1.8,1.4-3.1,1.4
		c-1,0-1.8-0.4-2.4-1c-0.7-0.8-1-1.8-1-3.1v-2.9c0-1.3,0.3-2.4,1-3.2c0.6-0.7,1.4-1.1,2.3-1.1c1.1,0,2.1,0.4,2.9,1.2l0.9-1
		c-1-1-2.3-1.4-3.8-1.4c-1.3,0-2.4,0.5-3.2,1.4c-1,1-1.4,2.4-1.4,4.1v2.9c0,1.5,0.4,2.8,1.3,3.9c0.9,1,2,1.6,3.3,1.6
		C-114.4,283.9-113.6,283.7-112.9,283.4 M-129.7,283.2c0.6,0.2,1.2,0.4,1.8,0.5c0.8,0.2,1.5,0.3,2.1,0.3c1.1,0,2-0.2,2.7-0.7
		c0.8-0.5,1.3-1.2,1.5-2.1c0.1-0.3,0.1-0.7,0.1-1c0-0.6-0.1-1.1-0.4-1.5c-0.3-0.7-0.9-1.2-1.7-1.6c-0.4-0.2-1-0.4-1.7-0.7l-0.9-0.3
		l-0.8-0.3c-1.2-0.4-1.8-1.1-1.8-2.1c0-0.2,0-0.5,0.1-0.7c0.1-0.6,0.5-1,1-1.4c0.5-0.3,1-0.5,1.7-0.5c0.8,0,1.4,0.1,2.1,0.3
		c0.6,0.2,1.2,0.5,1.6,0.8l0.1-1.5c-1-0.6-2.1-0.9-3.4-0.9c-1.2,0-2.1,0.3-2.9,0.7c-0.8,0.5-1.4,1.2-1.6,2.2c-0.1,0.4-0.1,0.7-0.1,1
		c0,1.6,0.9,2.7,2.7,3.3l0.8,0.2l0.7,0.2c0.5,0.2,0.9,0.3,1.3,0.5c1.2,0.4,1.7,1.2,1.7,2.2c-0.1,1-0.4,1.6-0.9,1.9s-1,0.5-1.8,0.5
		c-1.6,0-2.8-0.4-4-1.1L-129.7,283.2z M-140.3,283.8h7.6l-0.2-1.4h-6.1v-4.8h5.6v-1.4h-5.6v-4.7h6.2v-1.4h-7.5V283.8z M-9,290.5
		l-0.6,1.4l-1.8,3.9c-0.2,0.7-0.3,1.1-0.3,1.5c0-0.4-0.1-0.8-0.2-1.2l-2.6-5.6h-2.8l3.9,7.9c0.2,0.4,0.3,1,0.3,1.6v4.2h2.7V300
		c0-0.6,0.1-1.1,0.3-1.6l0.8-1.7l2.6-5.3l0.5-1H-9C-9,290.4-9,290.5-9,290.5z M-20.7,290.5v9.1l-0.2-0.9l-5-8.2h-2.4v13.7h2.6V295
		l0.2,0.9l5,8.4h2.4v-13.8H-20.7z M-29.9,304.2l-0.3-2.4h-5.5v-3.3h5v-2.3h-5V293h5.6v-2.5h-8.3v13.7H-29.9z M-50,302.7
		c0.6,0.5,1.2,0.9,2.1,1.1c0.9,0.3,1.8,0.5,2.8,0.5s2-0.2,2.8-0.7c0.9-0.5,1.4-1.2,1.7-2.1c0.1-0.4,0.2-0.9,0.2-1.3
		s-0.1-0.8-0.2-1.1c-0.3-0.8-0.8-1.3-1.6-1.8c-0.2-0.1-0.6-0.3-0.9-0.5l-1.1-0.4l-2-0.7c-0.8-0.3-1.2-0.8-1.2-1.5
		c0-0.1,0-0.3,0.1-0.4c0.2-0.9,0.8-1.3,1.9-1.3c1.5,0.1,2.5,0.7,3.5,1.7l1.3-2.3c-1.2-1-2.7-1.5-4.4-1.6c-1.3,0-2.1,0.1-2.8,0.5
		c-0.9,0.4-1.5,1.1-1.8,1.9c-0.2,0.5-0.3,1-0.3,1.5s0.1,0.9,0.3,1.4c0.4,0.9,1,1.6,1.8,2c0.6,0.3,1.1,0.5,1.6,0.7l0.7,0.3l0.8,0.3
		c1,0.3,1.6,0.9,1.6,1.6c-0.1,0.8-0.4,1.1-0.8,1.4c-0.3,0.2-0.8,0.3-1.3,0.3c-0.6,0-1.3-0.2-2-0.5c-0.6-0.3-1.2-0.8-1.7-1.3
		L-50,302.7z M-61.1,302.7c0.6,0.5,1.2,0.9,2.1,1.1c0.9,0.3,1.8,0.5,2.8,0.5s2-0.2,2.8-0.7c0.9-0.5,1.4-1.2,1.7-2.1
		c0.1-0.4,0.2-0.9,0.2-1.3s-0.1-0.8-0.2-1.1c-0.3-0.8-0.8-1.3-1.6-1.8c-0.2-0.1-0.6-0.3-0.9-0.5l-1.1-0.4l-2-0.7
		c-0.8-0.3-1.2-0.8-1.2-1.5c0-0.1,0-0.3,0.1-0.4c0.2-0.9,0.8-1.3,1.9-1.3c1.5,0.1,2.5,0.7,3.5,1.7l1.3-2.3c-1.2-1-2.7-1.5-4.4-1.6
		c-1.3,0-2.1,0.1-2.8,0.5c-0.9,0.4-1.5,1.1-1.8,1.9c-0.2,0.5-0.3,1-0.3,1.5s0.1,0.9,0.3,1.4c0.4,0.9,1,1.6,1.8,2
		c0.6,0.3,1.1,0.5,1.6,0.7l0.7,0.3l0.8,0.3c1,0.3,1.6,0.9,1.6,1.6c-0.1,0.8-0.4,1.1-0.8,1.4c-0.3,0.2-0.8,0.3-1.3,0.3
		c-0.6,0-1.3-0.2-2-0.5c-0.6-0.3-1.2-0.8-1.7-1.3L-61.1,302.7z M-63.2,290.5h-2.6v13.7h2.6V290.5z M-75.4,292.9h2.4
		c0.9,0,1.5,0.3,1.9,1c0.3,0.6,0.5,1.5,0.6,2.8v1.6c0,1-0.2,1.8-0.6,2.4c-0.4,0.7-1.1,1.1-1.9,1.1h-2.4V292.9z M-78,304.2h5.1
		c1.6,0,2.8-0.6,3.8-1.8c0.9-1.1,1.3-2.5,1.3-4.1v-1.6c0-1.8-0.4-3.2-1.3-4.4c-0.9-1.2-2.2-1.8-3.8-1.8H-78V304.2z M-86,293
		c0.9,0,1.4-0.5,1.4-1.5s-0.5-1.5-1.4-1.5c-1.1,0-1.6,0.5-1.6,1.5S-87.1,293-86,293L-86,293z M-84.8,304.2v-10l-2.6,0.4v9.6
		C-87.4,304.2-84.8,304.2-84.8,304.2z M-96.7,304.2v-11.3h3.6v-2.4h-9.7v2.4h3.5v11.3L-96.7,304.2L-96.7,304.2z M-110.6,292.9h2.4
		c0.6,0,1.1,0.2,1.4,0.7c0.3,0.4,0.5,0.9,0.5,1.5s-0.2,1.1-0.5,1.5c-0.4,0.5-0.9,0.7-1.5,0.7h-2.3V292.9L-110.6,292.9z
		 M-103.4,301.7c-0.6,0.1-0.8,0-1-0.1s-0.4-0.4-0.6-0.7l-0.3-0.5l-0.3-0.5c-0.2-0.4-0.4-0.6-0.7-0.8l0.4-0.2c1.5-1,2.2-2.2,2.2-3.8
		c0-1.3-0.4-2.3-1.2-3.2c-0.8-0.9-1.9-1.4-3.1-1.4h-5.3v13.7h2.6v-4.6h1.1c0.3,0,0.6,0.1,0.8,0.4c0.2,0.2,0.5,0.5,0.7,0.9l0.3,0.6
		l0.3,0.6c0.2,0.5,0.4,0.8,0.6,1c0.7,0.9,1.4,1.4,2.3,1.4c0.3,0,0.7-0.1,1.1-0.2L-103.4,301.7L-103.4,301.7z M-121.9,298.3l1.3-4.4
		l0.1-1.1l0.1,1.1l1.3,4.4H-121.9z M-121.8,290.5l-4.5,13.7h2.8l1.2-3.7h3.9l0.4,1.4l0.3,1l0.4,1.2h2.8l-4.6-13.6H-121.8z
		 M-127,291.6c0-1-0.4-1.6-1.3-1.6c-0.7,0-1.1,0.3-1.1,1c0,0.5,0.2,0.8,0.7,0.8c0.3,0.5,0.2,0.8,0.1,1c-0.2,0.2-0.6,0.5-1.1,0.8
		l0.8,1c0.7-0.4,1.3-0.9,1.6-1.4C-127.2,292.8-127,292.2-127,291.6 M-133.1,298.8c-0.1,1.3-0.3,2.3-0.7,3c-0.5,0.8-1.3,1.2-2.4,1.2
		h-3v-11h3c1.1,0,1.9,0.4,2.4,1.2c0.4,0.7,0.7,1.7,0.7,3V298.8z M-133,292c-0.8-0.9-1.9-1.4-3.2-1.4h-4.4v13.7h4.4
		c1.3,0,2.4-0.5,3.2-1.4c0.9-1,1.3-2.4,1.3-4.1v-2.7C-131.6,294.4-132.1,293-133,292 M-50.3,319l1.9-5.8l0.1-0.6l0.1,0.6l1.8,5.8
		H-50.3z M-49.1,310.9l-4.5,13.7h1.5l1.4-4.3h4.6l0.4,1.1l0.3,1l0.3,1l0.4,1.1h1.5l-3.2-9.8l-1.3-3.9L-49.1,310.9L-49.1,310.9z
		 M-56.9,310.9v10.9l-6.1-10.9h-1.4v13.7h1.4v-11l6.1,11h1.4v-13.7H-56.9z M-75.2,316.6c0-1.3,0.3-2.4,0.9-3.2
		c0.6-0.9,1.5-1.3,2.6-1.3s2,0.4,2.7,1.3c0.6,0.8,0.8,1.8,0.8,3.1v2.6c0,1.3-0.3,2.3-0.8,3.1c-0.6,0.8-1.5,1.3-2.6,1.3
		s-2-0.4-2.6-1.3c-0.6-0.8-0.9-1.8-0.9-3.2L-75.2,316.6L-75.2,316.6z M-76.6,319.2c0,1.7,0.5,3.1,1.4,4.1s2.1,1.5,3.5,1.5
		s2.6-0.5,3.5-1.5s1.4-2.4,1.4-4.1v-2.7c0-1.7-0.5-3.1-1.4-4.2c-0.9-1-2.1-1.5-3.5-1.5s-2.6,0.5-3.5,1.5s-1.4,2.4-1.4,4.2V319.2z
		 M-83.4,324.8c1.3,0,2.3-0.4,3.2-1.2c0.8-0.8,1.3-1.8,1.3-3v-3.1h-4.8l0.2,1.3h3.3v1.8c0,0.9-0.3,1.7-1,2.2
		c-0.6,0.5-1.3,0.7-2.1,0.7c-1,0-1.7-0.3-2.4-1c-0.7-0.8-1-1.8-1-3.2v-3.1c0-1.3,0.3-2.3,0.9-3s1.4-1.1,2.4-1.1
		c1.4,0,2.5,0.5,3.3,1.4l0.8-1.2c-1.1-1.1-2.5-1.6-4.1-1.6c-1.4,0-2.5,0.5-3.4,1.5s-1.3,2.3-1.3,3.9v3.1c0,1.6,0.4,2.9,1.3,3.9
		C-85.9,324.3-84.8,324.8-83.4,324.8 M-96.7,319l1.9-5.8l0.1-0.6l0.1,0.6l1.8,5.8H-96.7z M-95.4,310.9l-4.5,13.7h1.5l1.4-4.3h4.6
		l0.3,1.2l0.3,1l0.3,1l0.4,1.1h1.5l-3.2-9.8l-1.3-3.9C-94.1,310.9-95.4,310.9-95.4,310.9z M-108.2,312.3h3.2c0.7,0,1.3,0.3,1.7,0.8
		s0.6,1.1,0.6,1.8c0,0.7-0.2,1.4-0.7,1.9c-0.5,0.6-1.1,0.8-1.8,0.8h-3.1v-5.3L-108.2,312.3L-108.2,312.3z M-100.9,323.3
		c-0.2,0.1-0.3,0.1-0.5,0.1c-0.3,0-0.6-0.2-0.8-0.5c-0.2-0.2-0.3-0.5-0.5-0.8l-0.9-1.8c-0.2-0.3-0.3-0.6-0.5-0.9s-0.3-0.5-0.5-0.6
		c0.9-0.2,1.7-0.6,2.3-1.4c0.6-0.7,0.9-1.6,0.9-2.5c0-1.1-0.3-2-1-2.8s-1.6-1.2-2.7-1.2h-4.6v13.7h1.4V319h1.7
		c0.4,0,0.8,0.3,1.2,0.8c0.2,0.2,0.3,0.4,0.5,0.7l0.4,0.8l0.3,0.6l0.3,0.6c0.2,0.5,0.4,0.9,0.6,1.1c0.5,0.7,1.1,1,1.8,1l0.5-0.1
		L-100.9,323.3z M-119.5,312.3h3.2c0.7,0,1.3,0.3,1.7,0.8s0.6,1.1,0.6,1.8c0,0.7-0.2,1.4-0.7,1.9c-0.5,0.6-1.1,0.8-1.8,0.8h-3.1
		v-5.3L-119.5,312.3L-119.5,312.3z M-112.2,323.3c-0.2,0.1-0.3,0.1-0.5,0.1c-0.3,0-0.6-0.2-0.8-0.5c-0.2-0.2-0.3-0.5-0.5-0.8
		l-0.9-1.8c-0.2-0.3-0.3-0.6-0.5-0.9s-0.3-0.5-0.5-0.6c0.9-0.2,1.7-0.6,2.3-1.4c0.6-0.7,0.8-1.6,0.8-2.5c0-1.1-0.3-2-1-2.8
		s-1.6-1.2-2.7-1.2h-4.6v13.7h1.4V319h1.7c0.4,0,0.8,0.3,1.2,0.8c0.2,0.2,0.3,0.4,0.5,0.7l0.4,0.8l0.3,0.6l0.3,0.6
		c0.2,0.5,0.4,0.9,0.6,1.1c0.5,0.7,1.1,1,1.8,1l0.5-0.1L-112.2,323.3z M-129.7,319l1.9-5.8l0.1-0.6l0.1,0.6l1.8,5.8H-129.7z
		 M-128.5,310.9l-4.5,13.7h1.5l1.4-4.3h4.6l0.4,1.2l0.3,1l0.3,1l0.4,1.1h1.5l-3.2-9.8l-1.3-3.9
		C-127.1,310.9-128.5,310.9-128.5,310.9z M-136.5,324.6v-12.4h3.8v-1.3h-8.9v1.3h3.7v12.4H-136.5z"/>
</g>
</svg>
