<svg width="441" height="82" viewBox="0 0 441 82" fill="none" xmlns="http://www.w3.org/2000/svg">
<path d="M350.668 73.4747C349.384 73.4747 348.218 73.2329 347.172 72.7492C346.125 72.2566 345.294 71.5487 344.678 70.6252C344.063 69.693 343.755 68.5672 343.755 67.248C343.755 66.0871 343.984 65.146 344.441 64.4248C344.898 63.6949 345.509 63.1232 346.275 62.7099C347.04 62.2965 347.884 61.9887 348.808 61.7864C349.74 61.5753 350.676 61.4082 351.617 61.2851C352.849 61.1268 353.847 61.0081 354.612 60.9289C355.386 60.8409 355.949 60.6958 356.301 60.4935C356.661 60.2913 356.842 59.9395 356.842 59.4382V59.3326C356.842 58.031 356.485 57.0196 355.773 56.2984C355.069 55.5772 354.001 55.2166 352.567 55.2166C351.081 55.2166 349.916 55.5421 349.071 56.1929C348.227 56.8437 347.633 57.5385 347.29 58.2772L344.335 57.2219C344.863 55.9906 345.567 55.032 346.446 54.346C347.334 53.6512 348.302 53.1674 349.348 52.8948C350.404 52.6134 351.442 52.4727 352.462 52.4727C353.113 52.4727 353.86 52.5518 354.704 52.7101C355.558 52.8596 356.38 53.1718 357.171 53.6468C357.972 54.1217 358.636 54.8385 359.163 55.7971C359.691 56.7557 359.955 58.0398 359.955 59.6493V72.9998H356.842V70.2558H356.683C356.472 70.6956 356.12 71.1661 355.628 71.6674C355.135 72.1687 354.48 72.5952 353.662 72.947C352.844 73.2988 351.846 73.4747 350.668 73.4747ZM351.143 70.678C352.374 70.678 353.412 70.4361 354.256 69.9524C355.109 69.4687 355.751 68.8442 356.182 68.0791C356.622 67.3139 356.842 66.5092 356.842 65.6649V62.8154C356.71 62.9737 356.419 63.1188 355.971 63.2507C355.531 63.3739 355.021 63.4838 354.441 63.5805C353.869 63.6685 353.31 63.7476 352.765 63.818C352.229 63.8796 351.793 63.9323 351.459 63.9763C350.65 64.0818 349.894 64.2533 349.19 64.4908C348.495 64.7195 347.932 65.0669 347.501 65.533C347.079 65.9903 346.868 66.6148 346.868 67.4063C346.868 68.4881 347.268 69.306 348.069 69.8601C348.878 70.4053 349.902 70.678 351.143 70.678Z" fill="black"/>
<path d="M327.087 60.8102V72.9998H323.974V52.7365H326.981V55.9026H327.245C327.72 54.8736 328.441 54.0469 329.409 53.4225C330.376 52.7893 331.625 52.4727 333.155 52.4727C334.527 52.4727 335.728 52.7541 336.757 53.317C337.786 53.871 338.586 54.7153 339.158 55.8499C339.73 56.9756 340.015 58.4004 340.015 60.1242V72.9998H336.902V60.3352C336.902 58.7434 336.489 57.5033 335.662 56.615C334.835 55.718 333.701 55.2694 332.258 55.2694C331.265 55.2694 330.376 55.4849 329.594 55.9158C328.82 56.3468 328.208 56.9756 327.76 57.8023C327.311 58.629 327.087 59.6317 327.087 60.8102Z" fill="black"/>
<path d="M311.039 73.422C309.21 73.422 307.605 72.9866 306.224 72.1159C304.852 71.2452 303.779 70.0272 303.005 68.4617C302.24 66.8962 301.857 65.0669 301.857 62.9737C301.857 60.8629 302.24 59.0204 303.005 57.4461C303.779 55.8719 304.852 54.6494 306.224 53.7787C307.605 52.908 309.21 52.4727 311.039 52.4727C312.869 52.4727 314.469 52.908 315.841 53.7787C317.222 54.6494 318.295 55.8719 319.06 57.4461C319.834 59.0204 320.221 60.8629 320.221 62.9737C320.221 65.0669 319.834 66.8962 319.06 68.4617C318.295 70.0272 317.222 71.2452 315.841 72.1159C314.469 72.9866 312.869 73.422 311.039 73.422ZM311.039 70.6252C312.429 70.6252 313.572 70.269 314.469 69.5566C315.366 68.8443 316.03 67.9076 316.461 66.7467C316.892 65.5858 317.108 64.3281 317.108 62.9737C317.108 61.6193 316.892 60.3572 316.461 59.1875C316.03 58.0178 315.366 57.0724 314.469 56.3512C313.572 55.63 312.429 55.2694 311.039 55.2694C309.65 55.2694 308.506 55.63 307.609 56.3512C306.712 57.0724 306.048 58.0178 305.617 59.1875C305.186 60.3572 304.971 61.6193 304.971 62.9737C304.971 64.3281 305.186 65.5858 305.617 66.7467C306.048 67.9076 306.712 68.8443 307.609 69.5566C308.506 70.269 309.65 70.6252 311.039 70.6252Z" fill="black"/>
<path d="M289.349 81.0207C287.845 81.0207 286.552 80.8272 285.47 80.4403C284.388 80.0621 283.487 79.5608 282.766 78.9363C282.053 78.3207 281.486 77.6611 281.064 76.9575L283.544 75.2161C283.826 75.5855 284.182 76.0076 284.613 76.4826C285.044 76.9663 285.633 77.384 286.381 77.7358C287.137 78.0964 288.126 78.2767 289.349 78.2767C290.985 78.2767 292.335 77.8809 293.399 77.0894C294.463 76.2979 294.995 75.0578 294.995 73.3692V69.2532H294.731C294.503 69.6226 294.177 70.0799 293.755 70.6252C293.342 71.1617 292.744 71.641 291.961 72.0632C291.187 72.4765 290.14 72.6832 288.821 72.6832C287.185 72.6832 285.716 72.2962 284.415 71.5223C283.122 70.7483 282.097 69.6226 281.341 68.1451C280.594 66.6675 280.22 64.8734 280.22 62.7626C280.22 60.687 280.585 58.8797 281.315 57.3406C282.045 55.7927 283.06 54.5966 284.362 53.7523C285.664 52.8992 287.168 52.4727 288.874 52.4727C290.193 52.4727 291.24 52.6925 292.014 53.1323C292.796 53.5632 293.394 54.0557 293.808 54.6098C294.23 55.1551 294.555 55.6036 294.784 55.9554H295.101V52.7365H298.108V73.5803C298.108 75.3217 297.713 76.7376 296.921 77.8282C296.138 78.9275 295.083 79.7323 293.755 80.2424C292.436 80.7613 290.967 81.0207 289.349 81.0207ZM289.243 69.8864C290.492 69.8864 291.547 69.6006 292.409 69.0289C293.271 68.4573 293.926 67.635 294.375 66.562C294.824 65.489 295.048 64.205 295.048 62.7099C295.048 61.2499 294.828 59.9615 294.388 58.8445C293.948 57.7276 293.298 56.8525 292.436 56.2193C291.574 55.586 290.51 55.2694 289.243 55.2694C287.924 55.2694 286.825 55.6036 285.945 56.272C285.074 56.9404 284.419 57.8375 283.98 58.9632C283.549 60.089 283.333 61.3379 283.333 62.7099C283.333 64.117 283.553 65.3615 283.993 66.4433C284.441 67.5162 285.101 68.3605 285.972 68.9762C286.851 69.583 287.942 69.8864 289.243 69.8864Z" fill="black"/>
<path d="M267.2 73.4747C265.916 73.4747 264.75 73.2329 263.704 72.7492C262.657 72.2566 261.826 71.5487 261.211 70.6252C260.595 69.693 260.287 68.5672 260.287 67.248C260.287 66.0871 260.516 65.146 260.973 64.4248C261.43 63.6949 262.042 63.1232 262.807 62.7099C263.572 62.2965 264.416 61.9887 265.34 61.7864C266.272 61.5753 267.209 61.4082 268.15 61.2851C269.381 61.1268 270.379 61.0081 271.144 60.9289C271.918 60.8409 272.481 60.6958 272.833 60.4935C273.194 60.2913 273.374 59.9395 273.374 59.4382V59.3326C273.374 58.031 273.018 57.0196 272.305 56.2984C271.602 55.5772 270.533 55.2166 269.1 55.2166C267.613 55.2166 266.448 55.5421 265.604 56.1929C264.759 56.8437 264.166 57.5385 263.823 58.2772L260.868 57.2219C261.395 55.9906 262.099 55.032 262.978 54.346C263.867 53.6512 264.834 53.1674 265.881 52.8948C266.936 52.6134 267.974 52.4727 268.994 52.4727C269.645 52.4727 270.392 52.5518 271.237 52.7101C272.09 52.8596 272.912 53.1718 273.704 53.6468C274.504 54.1217 275.168 54.8385 275.696 55.7971C276.223 56.7557 276.487 58.0398 276.487 59.6493V72.9998H273.374V70.2558H273.216C273.004 70.6956 272.653 71.1661 272.16 71.6674C271.668 72.1687 271.012 72.5952 270.194 72.947C269.377 73.2988 268.378 73.4747 267.2 73.4747ZM267.675 70.678C268.906 70.678 269.944 70.4361 270.788 69.9524C271.641 69.4687 272.283 68.8442 272.714 68.0791C273.154 67.3139 273.374 66.5092 273.374 65.6649V62.8154C273.242 62.9737 272.952 63.1188 272.503 63.2507C272.063 63.3739 271.553 63.4838 270.973 63.5805C270.401 63.6685 269.843 63.7476 269.297 63.818C268.761 63.8796 268.326 63.9323 267.991 63.9763C267.182 64.0818 266.426 64.2533 265.722 64.4908C265.028 64.7195 264.465 65.0669 264.034 65.533C263.612 65.9903 263.4 66.6148 263.4 67.4063C263.4 68.4881 263.801 69.306 264.601 69.8601C265.41 70.4053 266.435 70.678 267.675 70.678Z" fill="black"/>
<path d="M248.414 73.0018V52.7385H251.422V55.7991H251.633C252.002 54.7965 252.671 53.983 253.638 53.3585C254.606 52.7341 255.696 52.4219 256.91 52.4219C257.139 52.4219 257.424 52.4263 257.767 52.4351C258.11 52.4439 258.37 52.4571 258.546 52.4746V55.6408C258.44 55.6144 258.198 55.5748 257.82 55.5221C257.451 55.4605 257.059 55.4297 256.646 55.4297C255.661 55.4297 254.782 55.6364 254.008 56.0497C253.242 56.4543 252.636 57.0172 252.187 57.7384C251.747 58.4507 251.527 59.2643 251.527 60.1789V73.0018H248.414Z" fill="black"/>
<path d="M235.592 73.0018V52.7385H238.6V55.7991H238.811C239.18 54.7965 239.849 53.983 240.816 53.3585C241.783 52.7341 242.874 52.4219 244.088 52.4219C244.316 52.4219 244.602 52.4263 244.945 52.4351C245.288 52.4439 245.548 52.4571 245.723 52.4746V55.6408C245.618 55.6144 245.376 55.5748 244.998 55.5221C244.628 55.4605 244.237 55.4297 243.824 55.4297C242.839 55.4297 241.959 55.6364 241.185 56.0497C240.42 56.4543 239.813 57.0172 239.365 57.7384C238.925 58.4507 238.705 59.2643 238.705 60.1789V73.0018H235.592Z" fill="black"/>
<path d="M221.623 73.4747C220.339 73.4747 219.173 73.2329 218.127 72.7492C217.08 72.2566 216.249 71.5487 215.633 70.6252C215.018 69.693 214.71 68.5672 214.71 67.248C214.71 66.0871 214.939 65.146 215.396 64.4248C215.853 63.6949 216.465 63.1232 217.23 62.7099C217.995 62.2965 218.839 61.9887 219.763 61.7864C220.695 61.5753 221.631 61.4082 222.573 61.2851C223.804 61.1268 224.802 61.0081 225.567 60.9289C226.341 60.8409 226.904 60.6958 227.256 60.4935C227.616 60.2913 227.797 59.9395 227.797 59.4382V59.3326C227.797 58.031 227.44 57.0196 226.728 56.2984C226.025 55.5772 224.956 55.2166 223.522 55.2166C222.036 55.2166 220.871 55.5421 220.026 56.1929C219.182 56.8437 218.588 57.5385 218.245 58.2772L215.29 57.2219C215.818 55.9906 216.522 55.032 217.401 54.346C218.289 53.6512 219.257 53.1674 220.303 52.8948C221.359 52.6134 222.397 52.4727 223.417 52.4727C224.068 52.4727 224.815 52.5518 225.66 52.7101C226.513 52.8596 227.335 53.1718 228.126 53.6468C228.927 54.1217 229.591 54.8385 230.119 55.7971C230.646 56.7557 230.91 58.0398 230.91 59.6493V72.9998H227.797V70.2558H227.638C227.427 70.6956 227.076 71.1661 226.583 71.6674C226.09 72.1687 225.435 72.5952 224.617 72.947C223.799 73.2988 222.801 73.4747 221.623 73.4747ZM222.098 70.678C223.329 70.678 224.367 70.4361 225.211 69.9524C226.064 69.4687 226.706 68.8442 227.137 68.0791C227.577 67.3139 227.797 66.5092 227.797 65.6649V62.8154C227.665 62.9737 227.375 63.1188 226.926 63.2507C226.486 63.3739 225.976 63.4838 225.396 63.5805C224.824 63.6685 224.266 63.7476 223.72 63.818C223.184 63.8796 222.748 63.9323 222.414 63.9763C221.605 64.0818 220.849 64.2533 220.145 64.4908C219.45 64.7195 218.888 65.0669 218.457 65.533C218.034 65.9903 217.823 66.6148 217.823 67.4063C217.823 68.4881 218.224 69.306 219.024 69.8601C219.833 70.4053 220.858 70.678 222.098 70.678Z" fill="black"/>
<path d="M194.526 48.8828V45.9805H214.79V48.8828H206.294V72.9982H203.022V48.8828H194.526Z" fill="black"/>
<path d="M172.164 73.4747C170.88 73.4747 169.714 73.2329 168.668 72.7492C167.621 72.2566 166.79 71.5487 166.174 70.6252C165.559 69.693 165.251 68.5672 165.251 67.248C165.251 66.0871 165.48 65.146 165.937 64.4248C166.394 63.6949 167.006 63.1232 167.771 62.7099C168.536 62.2965 169.38 61.9887 170.304 61.7864C171.236 61.5753 172.173 61.4082 173.114 61.2851C174.345 61.1268 175.343 61.0081 176.108 60.9289C176.882 60.8409 177.445 60.6958 177.797 60.4935C178.157 60.2913 178.338 59.9395 178.338 59.4382V59.3326C178.338 58.031 177.982 57.0196 177.269 56.2984C176.566 55.5772 175.497 55.2166 174.063 55.2166C172.577 55.2166 171.412 55.5421 170.567 56.1929C169.723 56.8437 169.129 57.5385 168.786 58.2772L165.831 57.2219C166.359 55.9906 167.063 55.032 167.942 54.346C168.83 53.6512 169.798 53.1674 170.844 52.8948C171.9 52.6134 172.938 52.4727 173.958 52.4727C174.609 52.4727 175.356 52.5518 176.201 52.7101C177.054 52.8596 177.876 53.1718 178.667 53.6468C179.468 54.1217 180.132 54.8385 180.66 55.7971C181.187 56.7557 181.451 58.0398 181.451 59.6493V72.9998H178.338V70.2558H178.179C177.968 70.6956 177.617 71.1661 177.124 71.6674C176.631 72.1687 175.976 72.5952 175.158 72.947C174.34 73.2988 173.342 73.4747 172.164 73.4747ZM172.639 70.678C173.87 70.678 174.908 70.4361 175.752 69.9524C176.605 69.4687 177.247 68.8442 177.678 68.0791C178.118 67.3139 178.338 66.5092 178.338 65.6649V62.8154C178.206 62.9737 177.916 63.1188 177.467 63.2507C177.027 63.3739 176.517 63.4838 175.937 63.5805C175.365 63.6685 174.807 63.7476 174.261 63.818C173.725 63.8796 173.289 63.9323 172.955 63.9763C172.146 64.0818 171.39 64.2533 170.686 64.4908C169.991 64.7195 169.429 65.0669 168.998 65.533C168.575 65.9903 168.364 66.6148 168.364 67.4063C168.364 68.4881 168.765 69.306 169.565 69.8601C170.374 70.4053 171.399 70.678 172.639 70.678Z" fill="black"/>
<path d="M143.818 73.4218C141.988 73.4218 140.383 72.9864 139.002 72.1157C137.63 71.245 136.557 70.0269 135.783 68.4615C135.018 66.896 134.636 65.0667 134.636 62.9735C134.636 60.8627 135.018 59.0202 135.783 57.4459C136.557 55.8717 137.63 54.6492 139.002 53.7785C140.383 52.9078 141.988 52.4724 143.818 52.4724C145.647 52.4724 147.248 52.9078 148.62 53.7785C150 54.6492 151.073 55.8717 151.838 57.4459C152.612 59.0202 152.999 60.8627 152.999 62.9735C152.999 65.0667 152.612 66.896 151.838 68.4615C151.073 70.0269 150 71.245 148.62 72.1157C147.248 72.9864 145.647 73.4218 143.818 73.4218ZM143.818 70.625C145.207 70.625 146.35 70.2688 147.248 69.5564C148.145 68.844 148.809 67.9074 149.24 66.7465C149.671 65.5856 149.886 64.3279 149.886 62.9735C149.886 61.6191 149.671 60.357 149.24 59.1873C148.809 58.0176 148.145 57.0721 147.248 56.351C146.35 55.6298 145.207 55.2692 143.818 55.2692C142.428 55.2692 141.285 55.6298 140.388 56.351C139.49 57.0721 138.826 58.0176 138.396 59.1873C137.965 60.357 137.749 61.6191 137.749 62.9735C137.749 64.3279 137.965 65.5856 138.396 66.7465C138.826 67.9074 139.49 68.844 140.388 69.5564C141.285 70.2688 142.428 70.625 143.818 70.625ZM142.393 49.9923L145.612 43.8711H149.253L145.137 49.9923H142.393Z" fill="black"/>
<path d="M127.77 72.9988V52.7355H130.883V72.9988H127.77ZM129.353 49.3582C128.746 49.3582 128.223 49.1516 127.783 48.7382C127.352 48.3248 127.137 47.8279 127.137 47.2475C127.137 46.667 127.352 46.1701 127.783 45.7568C128.223 45.3434 128.746 45.1367 129.353 45.1367C129.96 45.1367 130.479 45.3434 130.91 45.7568C131.349 46.1701 131.569 46.667 131.569 47.2475C131.569 47.8279 131.349 48.3248 130.91 48.7382C130.479 49.1516 129.96 49.3582 129.353 49.3582Z" fill="black"/>
<path d="M116.25 73.422C114.35 73.422 112.715 72.9734 111.343 72.0764C109.971 71.1793 108.915 69.9436 108.177 68.3693C107.438 66.7951 107.068 64.9965 107.068 62.9737C107.068 60.9157 107.447 59.0996 108.203 57.5253C108.968 55.9422 110.032 54.7065 111.395 53.8183C112.767 52.9212 114.368 52.4727 116.197 52.4727C117.622 52.4727 118.906 52.7365 120.05 53.2642C121.193 53.7919 122.13 54.5306 122.859 55.4805C123.589 56.4303 124.042 57.5385 124.218 58.8049H121.105C120.867 57.8815 120.34 57.0636 119.522 56.3512C118.713 55.63 117.622 55.2694 116.25 55.2694C115.036 55.2694 113.972 55.586 113.058 56.2193C112.152 56.8437 111.444 57.7276 110.934 58.8709C110.432 60.0054 110.182 61.3379 110.182 62.8682C110.182 64.4336 110.428 65.7968 110.92 66.9578C111.422 68.1187 112.125 69.0202 113.031 69.6622C113.946 70.3042 115.019 70.6252 116.25 70.6252C117.059 70.6252 117.794 70.4845 118.453 70.2031C119.113 69.9216 119.671 69.5171 120.129 68.9894C120.586 68.4617 120.911 67.8284 121.105 67.0897H124.218C124.042 68.2858 123.607 69.3631 122.912 70.3218C122.226 71.2716 121.316 72.028 120.181 72.5909C119.056 73.1449 117.745 73.422 116.25 73.422Z" fill="black"/>
<path d="M94.0485 73.4747C92.7644 73.4747 91.5991 73.2329 90.5525 72.7492C89.506 72.2566 88.6748 71.5487 88.0592 70.6252C87.4436 69.693 87.1357 68.5672 87.1357 67.248C87.1357 66.0871 87.3644 65.146 87.8217 64.4248C88.2791 63.6949 88.8903 63.1232 89.6555 62.7099C90.4206 62.2965 91.2649 61.9887 92.1884 61.7864C93.1206 61.5753 94.0573 61.4082 94.9983 61.2851C96.2296 61.1268 97.2278 61.0081 97.993 60.9289C98.7669 60.8409 99.3298 60.6958 99.6816 60.4935C100.042 60.2913 100.222 59.9395 100.222 59.4382V59.3326C100.222 58.031 99.8663 57.0196 99.1539 56.2984C98.4503 55.5772 97.3817 55.2166 95.9482 55.2166C94.4618 55.2166 93.2965 55.5421 92.4522 56.1929C91.6079 56.8437 91.0143 57.5385 90.6713 58.2772L87.7162 57.2219C88.2439 55.9906 88.9475 55.032 89.827 54.346C90.7152 53.6512 91.6827 53.1674 92.7293 52.8948C93.7846 52.6134 94.8224 52.4727 95.8426 52.4727C96.4934 52.4727 97.241 52.5518 98.0853 52.7101C98.9384 52.8596 99.7607 53.1718 100.552 53.6468C101.353 54.1217 102.017 54.8385 102.544 55.7971C103.072 56.7557 103.336 58.0398 103.336 59.6493V72.9998H100.222V70.2558H100.064C99.8531 70.6956 99.5013 71.1661 99.0088 71.6674C98.5163 72.1687 97.861 72.5952 97.0431 72.947C96.2252 73.2988 95.227 73.4747 94.0485 73.4747ZM94.5234 70.678C95.7547 70.678 96.7925 70.4361 97.6368 69.9524C98.4899 69.4687 99.1319 68.8442 99.5628 68.0791C100.003 67.3139 100.222 66.5092 100.222 65.6649V62.8154C100.091 62.9737 99.8003 63.1188 99.3518 63.2507C98.912 63.3739 98.4019 63.4838 97.8215 63.5805C97.2498 63.6685 96.6913 63.7476 96.146 63.818C95.6096 63.8796 95.1742 63.9323 94.84 63.9763C94.0309 64.0818 93.2745 64.2533 92.571 64.4908C91.8762 64.7195 91.3133 65.0669 90.8823 65.533C90.4602 65.9903 90.2491 66.6148 90.2491 67.4063C90.2491 68.4881 90.6493 69.306 91.4496 69.8601C92.2587 70.4053 93.2833 70.678 94.5234 70.678Z" fill="black"/>
<path d="M84.4024 52.7376V55.376H73.9014V52.7376H84.4024ZM76.962 47.8828H80.0753V67.1963C80.0753 68.0758 80.2029 68.7354 80.4579 69.1751C80.7218 69.6061 81.056 69.8963 81.4605 70.0458C81.8739 70.1865 82.3092 70.2569 82.7666 70.2569C83.1096 70.2569 83.391 70.2393 83.6109 70.2041C83.8307 70.1601 84.0066 70.125 84.1386 70.0986L84.7718 72.8953C84.5607 72.9745 84.2661 73.0536 83.8879 73.1328C83.5097 73.2207 83.0304 73.2647 82.45 73.2647C81.5705 73.2647 80.7086 73.0756 79.8643 72.6975C79.0288 72.3193 78.334 71.7432 77.7799 70.9693C77.2346 70.1953 76.962 69.2191 76.962 68.0406V47.8828Z" fill="black"/>
<path d="M67.774 64.7169V52.7383H70.8874V73.0016H67.774V69.5716H67.5629C67.088 70.6006 66.3492 71.4757 65.3466 72.1969C64.344 72.9092 63.0776 73.2654 61.5473 73.2654C60.2808 73.2654 59.1551 72.9884 58.17 72.4343C57.185 71.8715 56.4111 71.0271 55.8482 69.9014C55.2853 68.7669 55.0039 67.3377 55.0039 65.6139V52.7383H58.1173V65.4029C58.1173 66.8804 58.5306 68.0589 59.3573 68.9384C60.1929 69.8179 61.257 70.2576 62.5499 70.2576C63.3238 70.2576 64.111 70.0597 64.9113 69.664C65.7204 69.2682 66.3976 68.6613 66.9429 67.8434C67.497 67.0255 67.774 65.9833 67.774 64.7169Z" fill="black"/>
<path d="M33.3662 80.5986V52.7365H36.374V55.9554H36.7434C36.9721 55.6036 37.2887 55.1551 37.6933 54.6098C38.1066 54.0557 38.6959 53.5632 39.461 53.1323C40.235 52.6925 41.2816 52.4727 42.6008 52.4727C44.307 52.4727 45.8109 52.8992 47.1125 53.7523C48.4142 54.6054 49.43 55.8147 50.16 57.3802C50.8899 58.9457 51.2549 60.7926 51.2549 62.9209C51.2549 65.0669 50.8899 66.927 50.16 68.5013C49.43 70.0667 48.4186 71.2804 47.1257 72.1423C45.8329 72.9954 44.3422 73.422 42.6536 73.422C41.3519 73.422 40.3097 73.2065 39.527 72.7755C38.7443 72.3358 38.1418 71.8389 37.7197 71.2848C37.2975 70.7219 36.9721 70.2558 36.7434 69.8864H36.4796V80.5986H33.3662ZM36.4268 62.8682C36.4268 64.3985 36.6511 65.7485 37.0996 66.9182C37.5482 68.0791 38.2034 68.9894 39.0653 69.649C39.9272 70.2998 40.9825 70.6252 42.2314 70.6252C43.533 70.6252 44.6192 70.2822 45.4899 69.5962C46.3694 68.9014 47.029 67.9692 47.4687 66.7994C47.9173 65.6209 48.1415 64.3105 48.1415 62.8682C48.1415 61.4434 47.9217 60.1593 47.4819 59.016C47.051 57.8639 46.3958 56.9536 45.5163 56.2852C44.6456 55.608 43.5506 55.2694 42.2314 55.2694C40.965 55.2694 39.9008 55.5904 39.0389 56.2324C38.177 56.8657 37.5262 57.754 37.0864 58.8973C36.6467 60.0318 36.4268 61.3554 36.4268 62.8682Z" fill="black"/>
<path d="M25.5502 72.9988V52.7355H28.6636V72.9988H25.5502ZM27.1333 49.3582C26.5264 49.3582 26.0032 49.1516 25.5634 48.7382C25.1325 48.3248 24.917 47.8279 24.917 47.2475C24.917 46.667 25.1325 46.1701 25.5634 45.7568C26.0032 45.3434 26.5264 45.1367 27.1333 45.1367C27.7401 45.1367 28.259 45.3434 28.69 45.7568C29.1297 46.1701 29.3496 46.667 29.3496 47.2475C29.3496 47.8279 29.1297 48.3248 28.69 48.7382C28.259 49.1516 27.7401 49.3582 27.1333 49.3582Z" fill="black"/>
<path d="M8.60899 72.9982H0.271484V45.9805H8.97838C11.5992 45.9805 13.8419 46.5214 15.7064 47.6031C17.5709 48.6761 19.0001 50.2196 19.9939 52.2336C20.9877 54.2388 21.4846 56.6398 21.4846 59.4366C21.4846 62.2509 20.9833 64.6739 19.9807 66.7055C18.9781 68.7283 17.5182 70.285 15.6009 71.3756C13.6836 72.4573 11.353 72.9982 8.60899 72.9982ZM3.54316 70.0959H8.39792C10.6318 70.0959 12.4831 69.665 13.9519 68.8031C15.4206 67.9412 16.5156 66.7143 17.2367 65.1224C17.9579 63.5306 18.3185 61.6353 18.3185 59.4366C18.3185 57.2555 17.9623 55.3778 17.2499 53.8035C16.5375 52.2204 15.4734 51.0067 14.0574 50.1624C12.6414 49.3093 10.8781 48.8828 8.7673 48.8828H3.54316V70.0959Z" fill="black"/>
<path d="M430.923 28.4747C429.638 28.4747 428.473 28.2329 427.427 27.7492C426.38 27.2566 425.549 26.5487 424.933 25.6252C424.318 24.693 424.01 23.5672 424.01 22.248C424.01 21.0871 424.238 20.146 424.696 19.4248C425.153 18.6949 425.764 18.1232 426.529 17.7098C427.295 17.2965 428.139 16.9887 429.062 16.7864C429.995 16.5753 430.931 16.4082 431.872 16.2851C433.104 16.1268 434.102 16.008 434.867 15.9289C435.641 15.8409 436.204 15.6958 436.556 15.4936C436.916 15.2913 437.096 14.9395 437.096 14.4382V14.3326C437.096 13.031 436.74 12.0196 436.028 11.2984C435.324 10.5772 434.256 10.2166 432.822 10.2166C431.336 10.2166 430.171 10.5421 429.326 11.1929C428.482 11.8437 427.888 12.5385 427.545 13.2772L424.59 12.2219C425.118 10.9906 425.822 10.032 426.701 9.34596C427.589 8.65116 428.557 8.16745 429.603 7.89481C430.659 7.61337 431.696 7.47266 432.717 7.47266C433.367 7.47266 434.115 7.55181 434.959 7.71012C435.812 7.85963 436.635 8.17184 437.426 8.64677C438.227 9.12169 438.891 9.83847 439.418 10.7971C439.946 11.7557 440.21 13.0398 440.21 14.6492V27.9998H437.096V25.2558H436.938C436.727 25.6956 436.375 26.1661 435.883 26.6674C435.39 27.1687 434.735 27.5953 433.917 27.947C433.099 28.2988 432.101 28.4747 430.923 28.4747ZM431.397 25.678C432.629 25.678 433.666 25.4361 434.511 24.9524C435.364 24.4687 436.006 23.8442 436.437 23.0791C436.877 22.3139 437.096 21.5092 437.096 20.6649V17.8154C436.965 17.9737 436.674 18.1188 436.226 18.2507C435.786 18.3739 435.276 18.4838 434.695 18.5805C434.124 18.6685 433.565 18.7476 433.02 18.818C432.484 18.8796 432.048 18.9323 431.714 18.9763C430.905 19.0818 430.149 19.2533 429.445 19.4908C428.75 19.7195 428.187 20.0669 427.756 20.533C427.334 20.9903 427.123 21.6148 427.123 22.4063C427.123 23.4881 427.523 24.306 428.324 24.8601C429.133 25.4053 430.157 25.678 431.397 25.678Z" fill="black"/>
<path d="M420.257 0.980469V27.9982H417.144V0.980469H420.257Z" fill="black"/>
<path d="M395.57 28.422C393.617 28.422 391.933 27.991 390.517 27.1291C389.11 26.2584 388.024 25.0447 387.259 23.4881C386.502 21.9226 386.124 20.102 386.124 18.0265C386.124 15.9509 386.502 14.1216 387.259 12.5385C388.024 10.9466 389.088 9.70655 390.451 8.81827C391.823 7.92119 393.424 7.47266 395.253 7.47266C396.308 7.47266 397.351 7.64855 398.38 8.00035C399.409 8.35214 400.345 8.9238 401.19 9.71534C402.034 10.4981 402.707 11.5359 403.208 12.8287C403.709 14.1216 403.96 15.7134 403.96 17.6043V18.9235H388.34V16.2323H400.794C400.794 15.089 400.565 14.0688 400.108 13.1717C399.659 12.2746 399.017 11.5667 398.182 11.0478C397.355 10.5289 396.379 10.2694 395.253 10.2694C394.013 10.2694 392.94 10.5772 392.034 11.1929C391.137 11.7997 390.447 12.5913 389.963 13.5675C389.479 14.5437 389.237 15.5903 389.237 16.7072V18.5014C389.237 20.0317 389.501 21.3289 390.029 22.3931C390.565 23.4485 391.309 24.2532 392.258 24.8073C393.208 25.3526 394.312 25.6252 395.57 25.6252C396.388 25.6252 397.126 25.5109 397.786 25.2822C398.454 25.0447 399.03 24.693 399.514 24.2268C399.998 23.7519 400.372 23.1627 400.635 22.4591L403.643 23.3034C403.327 24.3236 402.795 25.2206 402.047 25.9946C401.3 26.7597 400.376 27.3578 399.277 27.7887C398.177 28.2109 396.942 28.422 395.57 28.422Z" fill="black"/>
<path d="M372.652 28.4204C370.964 28.4204 369.473 27.9938 368.18 27.1407C366.887 26.2788 365.876 25.0651 365.146 23.4997C364.416 21.9254 364.051 20.0653 364.051 17.9193C364.051 15.791 364.416 13.9441 365.146 12.3786C365.876 10.8131 366.892 9.60381 368.193 8.75071C369.495 7.89761 370.999 7.47106 372.705 7.47106C374.024 7.47106 375.066 7.69093 375.831 8.13067C376.605 8.56162 377.195 9.05413 377.599 9.60821C378.013 10.1535 378.334 10.602 378.562 10.9538H378.826V0.980469H381.939V27.9982H378.932V24.8848H378.562C378.334 25.2542 378.008 25.7204 377.586 26.2832C377.164 26.8373 376.561 27.3342 375.779 27.7739C374.996 28.2049 373.954 28.4204 372.652 28.4204ZM373.074 25.6236C374.323 25.6236 375.379 25.2982 376.24 24.6474C377.102 23.9878 377.758 23.0775 378.206 21.9166C378.655 20.7469 378.879 19.3969 378.879 17.8666C378.879 16.3538 378.659 15.0302 378.219 13.8957C377.78 12.7524 377.129 11.8641 376.267 11.2309C375.405 10.5888 374.341 10.2678 373.074 10.2678C371.755 10.2678 370.656 10.6064 369.776 11.2836C368.906 11.952 368.25 12.8623 367.811 14.0144C367.38 15.1578 367.164 16.4418 367.164 17.8666C367.164 19.3089 367.384 20.6193 367.824 21.7979C368.272 22.9676 368.932 23.8998 369.803 24.5946C370.682 25.2806 371.773 25.6236 373.074 25.6236Z" fill="black"/>
<path d="M337.878 35.6003C337.351 35.6003 336.88 35.5564 336.467 35.4684C336.053 35.3893 335.768 35.3101 335.609 35.231L336.401 32.487C337.157 32.6804 337.826 32.7508 338.406 32.698C338.986 32.6453 339.501 32.3858 339.95 31.9197C340.407 31.4624 340.825 30.7192 341.203 29.6902L341.783 28.1071L334.29 7.73828H337.667L343.261 23.8856H343.472L349.065 7.73828H352.443L343.841 30.9567C343.454 32.0032 342.975 32.8695 342.403 33.5555C341.832 34.2503 341.168 34.7648 340.411 35.099C339.664 35.4332 338.819 35.6003 337.878 35.6003Z" fill="black"/>
<path d="M318.981 15.8102V27.9998H315.867V7.7365H318.875V10.9026H319.139C319.614 9.87365 320.335 9.04693 321.302 8.4225C322.27 7.78927 323.519 7.47266 325.049 7.47266C326.421 7.47266 327.622 7.75409 328.651 8.31696C329.68 8.87104 330.48 9.71534 331.051 10.8499C331.623 11.9756 331.909 13.4004 331.909 15.1242V27.9998H328.796V15.3352C328.796 13.7434 328.382 12.5033 327.556 11.615C326.729 10.718 325.594 10.2694 324.152 10.2694C323.158 10.2694 322.27 10.4849 321.487 10.9158C320.713 11.3468 320.102 11.9756 319.653 12.8023C319.205 13.629 318.981 14.6317 318.981 15.8102Z" fill="black"/>
<path d="M303.742 28.422C301.789 28.422 300.105 27.991 298.689 27.1291C297.282 26.2584 296.196 25.0447 295.43 23.4881C294.674 21.9226 294.296 20.102 294.296 18.0265C294.296 15.9509 294.674 14.1216 295.43 12.5385C296.196 10.9466 297.26 9.70655 298.623 8.81827C299.995 7.92119 301.596 7.47266 303.425 7.47266C304.48 7.47266 305.523 7.64855 306.552 8.00035C307.581 8.35214 308.517 8.9238 309.361 9.71534C310.206 10.4981 310.879 11.5359 311.38 12.8287C311.881 14.1216 312.132 15.7134 312.132 17.6043V18.9235H296.512V16.2323H308.966C308.966 15.089 308.737 14.0688 308.28 13.1717C307.831 12.2746 307.189 11.5667 306.354 11.0478C305.527 10.5289 304.551 10.2694 303.425 10.2694C302.185 10.2694 301.112 10.5772 300.206 11.1929C299.309 11.7997 298.619 12.5913 298.135 13.5675C297.651 14.5437 297.409 15.5903 297.409 16.7072V18.5014C297.409 20.0317 297.673 21.3289 298.201 22.3931C298.737 23.4485 299.48 24.2532 300.43 24.8073C301.38 25.3526 302.484 25.6252 303.742 25.6252C304.559 25.6252 305.298 25.5109 305.958 25.2822C306.626 25.0447 307.202 24.693 307.686 24.2268C308.17 23.7519 308.544 23.1627 308.807 22.4591L311.815 23.3034C311.499 24.3236 310.967 25.2206 310.219 25.9946C309.471 26.7597 308.548 27.3578 307.449 27.7887C306.349 28.2109 305.114 28.422 303.742 28.422Z" fill="black"/>
<path d="M291.19 12.2746L288.393 13.0662C288.217 12.6 287.958 12.1471 287.615 11.7074C287.28 11.2588 286.823 10.8895 286.243 10.5992C285.662 10.309 284.919 10.1639 284.013 10.1639C282.773 10.1639 281.74 10.4497 280.913 11.0214C280.095 11.5842 279.686 12.301 279.686 13.1717C279.686 13.9457 279.967 14.5569 280.53 15.0054C281.093 15.454 281.973 15.8278 283.169 16.1268L286.177 16.8655C287.988 17.3053 289.338 17.9781 290.227 18.884C291.115 19.781 291.559 20.9376 291.559 22.3535C291.559 23.5144 291.225 24.5522 290.556 25.4669C289.897 26.3816 288.973 27.1027 287.786 27.6304C286.599 28.1581 285.218 28.422 283.644 28.422C281.577 28.422 279.866 27.9734 278.512 27.0764C277.158 26.1793 276.3 24.8688 275.939 23.1451L278.895 22.4063C279.176 23.4969 279.708 24.3148 280.491 24.8601C281.282 25.4053 282.316 25.678 283.591 25.678C285.042 25.678 286.194 25.3702 287.047 24.7545C287.909 24.1301 288.34 23.3825 288.34 22.5118C288.34 21.8082 288.094 21.219 287.601 20.7441C287.109 20.2604 286.353 19.8998 285.332 19.6623L281.955 18.8708C280.099 18.431 278.736 17.7494 277.866 16.826C277.004 15.8937 276.573 14.7284 276.573 13.33C276.573 12.1867 276.894 11.1753 277.536 10.2958C278.187 9.41632 279.07 8.72592 280.187 8.22461C281.313 7.72331 282.588 7.47266 284.013 7.47266C286.018 7.47266 287.593 7.9124 288.736 8.79188C289.888 9.67137 290.706 10.8323 291.19 12.2746Z" fill="black"/>
<path d="M272.781 12.2746L269.984 13.0662C269.808 12.6 269.548 12.1471 269.205 11.7074C268.871 11.2588 268.414 10.8895 267.833 10.5992C267.253 10.309 266.51 10.1639 265.604 10.1639C264.364 10.1639 263.33 10.4497 262.504 11.0214C261.686 11.5842 261.277 12.301 261.277 13.1717C261.277 13.9457 261.558 14.5569 262.121 15.0054C262.684 15.454 263.564 15.8278 264.76 16.1268L267.767 16.8655C269.579 17.3053 270.929 17.9781 271.818 18.884C272.706 19.781 273.15 20.9376 273.15 22.3535C273.15 23.5144 272.816 24.5522 272.147 25.4669C271.488 26.3816 270.564 27.1027 269.377 27.6304C268.19 28.1581 266.809 28.422 265.235 28.422C263.168 28.422 261.457 27.9734 260.103 27.0764C258.748 26.1793 257.891 24.8688 257.53 23.1451L260.485 22.4063C260.767 23.4969 261.299 24.3148 262.082 24.8601C262.873 25.4053 263.907 25.678 265.182 25.678C266.633 25.678 267.785 25.3702 268.638 24.7545C269.5 24.1301 269.931 23.3825 269.931 22.5118C269.931 21.8082 269.685 21.219 269.192 20.7441C268.7 20.2604 267.943 19.8998 266.923 19.6623L263.546 18.8708C261.69 18.431 260.327 17.7494 259.456 16.826C258.594 15.8937 258.164 14.7284 258.164 13.33C258.164 12.1867 258.485 11.1753 259.127 10.2958C259.777 9.41632 260.661 8.72592 261.778 8.22461C262.904 7.72331 264.179 7.47266 265.604 7.47266C267.609 7.47266 269.183 7.9124 270.327 8.79188C271.479 9.67137 272.297 10.8323 272.781 12.2746Z" fill="black"/>
<path d="M250.612 27.9988V7.73546H253.725V27.9988H250.612ZM252.195 4.35824C251.588 4.35824 251.065 4.15156 250.625 3.7382C250.194 3.32485 249.979 2.82794 249.979 2.24748C249.979 1.66702 250.194 1.17011 250.625 0.756754C251.065 0.343397 251.588 0.136719 252.195 0.136719C252.802 0.136719 253.321 0.343397 253.752 0.756754C254.191 1.17011 254.411 1.66702 254.411 2.24748C254.411 2.82794 254.191 3.32485 253.752 3.7382C253.321 4.15156 252.802 4.35824 252.195 4.35824Z" fill="black"/>
<path d="M233.671 27.9982H225.333V0.980469H234.04C236.661 0.980469 238.903 1.52135 240.768 2.60312C242.632 3.67609 244.062 5.21958 245.055 7.2336C246.049 9.23882 246.546 11.6398 246.546 14.4366C246.546 17.2509 246.045 19.6739 245.042 21.7055C244.04 23.7283 242.58 25.285 240.662 26.3756C238.745 27.4573 236.415 27.9982 233.671 27.9982ZM228.605 25.0959H233.459C235.693 25.0959 237.545 24.665 239.013 23.8031C240.482 22.9412 241.577 21.7143 242.298 20.1224C243.019 18.5306 243.38 16.6353 243.38 14.4366C243.38 12.2555 243.024 10.3778 242.311 8.80348C241.599 7.22041 240.535 6.00672 239.119 5.16241C237.703 4.30931 235.94 3.88277 233.829 3.88277H228.605V25.0959Z" fill="black"/>
<path d="M207.647 27.9988V7.73546H210.76V27.9988H207.647ZM209.23 4.35824C208.623 4.35824 208.1 4.15156 207.66 3.7382C207.229 3.32485 207.014 2.82794 207.014 2.24748C207.014 1.66702 207.229 1.17011 207.66 0.756754C208.1 0.343397 208.623 0.136719 209.23 0.136719C209.837 0.136719 210.356 0.343397 210.787 0.756754C211.226 1.17011 211.446 1.66702 211.446 2.24748C211.446 2.82794 211.226 3.32485 210.787 3.7382C210.356 4.15156 209.837 4.35824 209.23 4.35824Z" fill="black"/>
<path d="M194.515 7.73756V10.376H184.014V7.73756H194.515ZM187.074 2.88281H190.188V22.1963C190.188 23.0758 190.315 23.7354 190.57 24.1751C190.834 24.6061 191.168 24.8963 191.573 25.0458C191.986 25.1865 192.422 25.2569 192.879 25.2569C193.222 25.2569 193.503 25.2393 193.723 25.2041C193.943 25.1601 194.119 25.125 194.251 25.0986L194.884 27.8953C194.673 27.9745 194.378 28.0536 194 28.1328C193.622 28.2207 193.143 28.2647 192.562 28.2647C191.683 28.2647 190.821 28.0756 189.977 27.6975C189.141 27.3193 188.446 26.7432 187.892 25.9693C187.347 25.1953 187.074 24.2191 187.074 23.0406V2.88281Z" fill="black"/>
<path d="M171.61 28.0018V7.73849H174.618V10.7991H174.829C175.199 9.79648 175.867 8.98296 176.834 8.35853C177.802 7.73409 178.892 7.42188 180.106 7.42188C180.335 7.42188 180.621 7.42627 180.964 7.43507C181.307 7.44386 181.566 7.45706 181.742 7.47465V10.6408C181.636 10.6144 181.395 10.5748 181.016 10.5221C180.647 10.4605 180.256 10.4297 179.842 10.4297C178.857 10.4297 177.978 10.6364 177.204 11.0497C176.439 11.4543 175.832 12.0172 175.383 12.7384C174.944 13.4507 174.724 14.2643 174.724 15.1789V28.0018H171.61Z" fill="black"/>
<path d="M149.036 27.9982H145.606L155.527 0.980469H158.904L168.825 27.9982H165.395L157.321 5.25476H157.11L149.036 27.9982ZM150.303 17.4444H164.128V20.3467H150.303V17.4444Z" fill="black"/>
<path d="M143.393 0.980469V3.35507C143.393 4.07625 143.261 4.8458 142.997 5.66372C142.742 6.47285 142.364 7.25998 141.863 8.02514C141.37 8.78149 140.772 9.4411 140.068 10.004L138.38 8.63198C138.934 7.84044 139.413 7.01813 139.818 6.16503C140.231 5.30313 140.438 4.38407 140.438 3.40785V0.980469H143.393Z" fill="black"/>
<path d="M125.227 28.4204C123.539 28.4204 122.048 27.9938 120.755 27.1407C119.462 26.2788 118.451 25.0651 117.721 23.4997C116.991 21.9254 116.626 20.0653 116.626 17.9193C116.626 15.791 116.991 13.9441 117.721 12.3786C118.451 10.8131 119.467 9.60381 120.768 8.75071C122.07 7.89761 123.574 7.47106 125.28 7.47106C126.599 7.47106 127.642 7.69093 128.407 8.13067C129.181 8.56162 129.77 9.05413 130.174 9.60821C130.588 10.1535 130.909 10.602 131.137 10.9538H131.401V0.980469H134.515V27.9982H131.507V24.8848H131.137C130.909 25.2542 130.583 25.7204 130.161 26.2832C129.739 26.8373 129.137 27.3342 128.354 27.7739C127.571 28.2049 126.529 28.4204 125.227 28.4204ZM125.649 25.6236C126.898 25.6236 127.954 25.2982 128.816 24.6474C129.678 23.9878 130.333 23.0775 130.781 21.9166C131.23 20.7469 131.454 19.3969 131.454 17.8666C131.454 16.3538 131.234 15.0302 130.794 13.8957C130.355 12.7524 129.704 11.8641 128.842 11.2309C127.98 10.5888 126.916 10.2678 125.649 10.2678C124.33 10.2678 123.231 10.6064 122.351 11.2836C121.481 11.952 120.826 12.8623 120.386 14.0144C119.955 15.1578 119.739 16.4418 119.739 17.8666C119.739 19.3089 119.959 20.6193 120.399 21.7979C120.847 22.9676 121.507 23.8998 122.378 24.5946C123.257 25.2806 124.348 25.6236 125.649 25.6236Z" fill="black"/>
<path d="M94.1579 28.4747C92.8738 28.4747 91.7085 28.2329 90.6619 27.7492C89.6153 27.2566 88.7842 26.5487 88.1686 25.6252C87.5529 24.693 87.2451 23.5672 87.2451 22.248C87.2451 21.0871 87.4738 20.146 87.9311 19.4248C88.3884 18.6949 88.9997 18.1232 89.7648 17.7098C90.53 17.2965 91.3743 16.9887 92.2978 16.7864C93.23 16.5753 94.1667 16.4082 95.1077 16.2851C96.339 16.1268 97.3372 16.008 98.1023 15.9289C98.8763 15.8409 99.4392 15.6958 99.791 15.4936C100.152 15.2913 100.332 14.9395 100.332 14.4382V14.3326C100.332 13.031 99.9756 12.0196 99.2633 11.2984C98.5597 10.5772 97.4911 10.2166 96.0575 10.2166C94.5712 10.2166 93.4059 10.5421 92.5616 11.1929C91.7173 11.8437 91.1236 12.5385 90.7806 13.2772L87.8256 12.2219C88.3533 10.9906 89.0568 10.032 89.9363 9.34596C90.8246 8.65116 91.792 8.16745 92.8386 7.89481C93.894 7.61337 94.9318 7.47266 95.952 7.47266C96.6028 7.47266 97.3504 7.55181 98.1947 7.71012C99.0478 7.85963 99.8701 8.17184 100.662 8.64677C101.462 9.12169 102.126 9.83847 102.654 10.7971C103.181 11.7557 103.445 13.0398 103.445 14.6492V27.9998H100.332V25.2558H100.174C99.9625 25.6956 99.6107 26.1661 99.1181 26.6674C98.6256 27.1687 97.9704 27.5953 97.1525 27.947C96.3346 28.2988 95.3364 28.4747 94.1579 28.4747ZM94.6328 25.678C95.8641 25.678 96.9018 25.4361 97.7462 24.9524C98.5993 24.4687 99.2413 23.8442 99.6722 23.0791C100.112 22.3139 100.332 21.5092 100.332 20.6649V17.8154C100.2 17.9737 99.9097 18.1188 99.4611 18.2507C99.0214 18.3739 98.5113 18.4838 97.9308 18.5805C97.3592 18.6685 96.8007 18.7476 96.2554 18.818C95.7189 18.8796 95.2836 18.9323 94.9494 18.9763C94.1403 19.0818 93.3839 19.2533 92.6803 19.4908C91.9855 19.7195 91.4227 20.0669 90.9917 20.533C90.5696 20.9903 90.3585 21.6148 90.3585 22.4063C90.3585 23.4881 90.7587 24.306 91.559 24.8601C92.3681 25.4053 93.3927 25.678 94.6328 25.678Z" fill="black"/>
<path d="M83.4923 0.980469V27.9982H80.3789V0.980469H83.4923Z" fill="black"/>
<path d="M67.4445 28.422C65.6152 28.422 64.0101 27.9866 62.6293 27.1159C61.2573 26.2452 60.1844 25.0272 59.4104 23.4617C58.6453 21.8962 58.2627 20.0669 58.2627 17.9737C58.2627 15.8629 58.6453 14.0204 59.4104 12.4461C60.1844 10.8719 61.2573 9.64938 62.6293 8.77869C64.0101 7.908 65.6152 7.47266 67.4445 7.47266C69.2738 7.47266 70.8745 7.908 72.2465 8.77869C73.6273 9.64938 74.7003 10.8719 75.4654 12.4461C76.2394 14.0204 76.6263 15.8629 76.6263 17.9737C76.6263 20.0669 76.2394 21.8962 75.4654 23.4617C74.7003 25.0272 73.6273 26.2452 72.2465 27.1159C70.8745 27.9866 69.2738 28.422 67.4445 28.422ZM67.4445 25.6252C68.8341 25.6252 69.9774 25.269 70.8745 24.5566C71.7716 23.8443 72.4356 22.9076 72.8665 21.7467C73.2975 20.5858 73.513 19.3281 73.513 17.9737C73.513 16.6193 73.2975 15.3572 72.8665 14.1875C72.4356 13.0178 71.7716 12.0724 70.8745 11.3512C69.9774 10.63 68.8341 10.2694 67.4445 10.2694C66.0549 10.2694 64.9116 10.63 64.0145 11.3512C63.1174 12.0724 62.4534 13.0178 62.0225 14.1875C61.5915 15.3572 61.3761 16.6193 61.3761 17.9737C61.3761 19.3281 61.5915 20.5858 62.0225 21.7467C62.4534 22.9076 63.1174 23.8443 64.0145 24.5566C64.9116 25.269 66.0549 25.6252 67.4445 25.6252Z" fill="black"/>
<path d="M47.6935 28.422C45.7938 28.422 44.158 27.9734 42.786 27.0764C41.414 26.1793 40.3586 24.9436 39.6199 23.3693C38.8811 21.7951 38.5117 19.9965 38.5117 17.9737C38.5117 15.9157 38.8899 14.0996 39.6463 12.5253C40.4114 10.9422 41.4756 9.70655 42.8388 8.81827C44.2108 7.92119 45.8114 7.47266 47.6408 7.47266C49.0655 7.47266 50.3496 7.7365 51.4929 8.26419C52.6362 8.79188 53.5729 9.53065 54.3029 10.4805C55.0328 11.4303 55.4858 12.5385 55.6617 13.8049H52.5483C52.3108 12.8815 51.7831 12.0636 50.9652 11.3512C50.1561 10.63 49.0655 10.2694 47.6935 10.2694C46.4798 10.2694 45.4157 10.586 44.501 11.2193C43.5951 11.8437 42.8872 12.7276 42.3771 13.8709C41.8757 15.0054 41.6251 16.3379 41.6251 17.8682C41.6251 19.4336 41.8713 20.7968 42.3639 21.9578C42.8652 23.1187 43.5688 24.0201 44.4746 24.6622C45.3893 25.3042 46.4623 25.6252 47.6935 25.6252C48.5027 25.6252 49.237 25.4845 49.8966 25.2031C50.5563 24.9216 51.1147 24.5171 51.5721 23.9894C52.0294 23.4617 52.3548 22.8284 52.5483 22.0897H55.6617C55.4858 23.2858 55.0504 24.3631 54.3556 25.3218C53.6696 26.2716 52.7594 27.028 51.6248 27.5909C50.4991 28.1449 49.1887 28.422 47.6935 28.422Z" fill="black"/>
<path d="M35.4055 12.2746L32.6088 13.0662C32.4329 12.6 32.1734 12.1471 31.8304 11.7074C31.4962 11.2588 31.0389 10.8895 30.4584 10.5992C29.878 10.309 29.1348 10.1639 28.2289 10.1639C26.9889 10.1639 25.9555 10.4497 25.1288 11.0214C24.3108 11.5842 23.9019 12.301 23.9019 13.1717C23.9019 13.9457 24.1833 14.5569 24.7462 15.0054C25.3091 15.454 26.1885 15.8278 27.3846 16.1268L30.3925 16.8655C32.2042 17.3053 33.5542 17.9781 34.4425 18.884C35.3308 19.781 35.7749 20.9376 35.7749 22.3535C35.7749 23.5144 35.4407 24.5522 34.7723 25.4669C34.1127 26.3816 33.1892 27.1027 32.0019 27.6304C30.8146 28.1581 29.4338 28.422 27.8596 28.422C25.7928 28.422 24.0822 27.9734 22.7278 27.0764C21.3734 26.1793 20.5159 24.8688 20.1553 23.1451L23.1103 22.4063C23.3918 23.4969 23.9239 24.3148 24.7066 24.8601C25.4981 25.4053 26.5315 25.678 27.8068 25.678C29.2579 25.678 30.4101 25.3702 31.2632 24.7545C32.1251 24.1301 32.556 23.3825 32.556 22.5118C32.556 21.8082 32.3097 21.219 31.8172 20.7441C31.3247 20.2604 30.5684 19.8998 29.5482 19.6623L26.1709 18.8708C24.3152 18.431 22.952 17.7494 22.0813 16.826C21.2195 15.8937 20.7885 14.7284 20.7885 13.33C20.7885 12.1867 21.1095 11.1753 21.7515 10.2958C22.4024 9.41632 23.2862 8.72592 24.4032 8.22461C25.5289 7.72331 26.8042 7.47266 28.2289 7.47266C30.2342 7.47266 31.8084 7.9124 32.9518 8.79188C34.1039 9.67137 34.9218 10.8323 35.4055 12.2746Z" fill="black"/>
<path d="M0.271484 27.9982V0.980469H16.5771V3.88277H3.54316V13.0118H15.7328V15.9141H3.54316V25.0959H16.7882V27.9982H0.271484Z" fill="black"/>
</svg>
